<?xml version="1.0" encoding="UTF-8"?>
<!-- Generated by Pixelmator Pro 3.5.6 -->
<svg width="4096" height="2048" viewBox="0 0 4096 2048" xmlns="http://www.w3.org/2000/svg">
    <style>
      * {
        transform-origin: center;
        transform-box: fill-box;
      }
      #background {
        animation: fade-in 0.7s cubic-bezier(0,.75,.25,1) forwards;
      }
      #heyWave, #name {
        animation: fade-in-down 0.7s cubic-bezier(0,.75,.25,1) forwards;
      }
      #openToWork, #roles {
        animation: fade-in-up 0.7s cubic-bezier(0,.75,.25,1) forwards;
      }

      #heyWave {
        opacity: 0;
        animation-delay: .25s;
      }
      #hey {
        transform: translate3d(279px, 0, 0);
        animation: hey .8s cubic-bezier(.4,1.6,.3,.8) forwards;
        animation-delay: .5s;
      }
      #wave {
        animation: wave .8s cubic-bezier(.4,1.6,.3,.8) forwards;
        animation-delay: .5s;
        opacity: 0;
      }
      #name {
        opacity: 0;
        animation-delay: .5s;
      }
      #roles {
        opacity: 0;
        animation-delay: .75s;
      }
      #pingShine {
        animation: ping 1s cubic-bezier(0,.75,.25,1) infinite;
        animation-delay: 2s;
      }
      #openToWork {
        opacity: 0;
        animation-delay: 1.25s;
      }

      @keyframes fade-in {
        from {
          opacity: 0;
        }
        to {
          opacity: 1;
        }
      }
      @keyframes fade-in-down {
        from {
          opacity: 0;
          transform: translate3d(0, -150px, 0);
        }
        to {
          opacity: 1;
          transform: translate3d(0, 0, 0);
        }
      }
      @keyframes fade-in-up {
        from {
          opacity: 0;
          transform: translate3d(0, 150px, 0);
        }
        to {
          opacity: 1;
          transform: translate3d(0, 0, 0);
        }
      }
      @keyframes ping {
        75%,
        100% {
          transform: scale(3);
          opacity: 0;
        }
      }
      @keyframes wave {
        from {
          transform: rotate(80deg) scale(.5) translate3d(270px, -300px, 0);
        }
        to {
          opacity: 1;
          transform: rotate(0) translate3d(0, 0, 0) scale(1);
        }
      }
      @keyframes hey {
        to {
          transform: translate3d(0, 0, 0);
        }
      }
    </style>
    <linearGradient id="linearGradient1" x1="2048" y1="0" x2="2048" y2="2048" gradientUnits="userSpaceOnUse">
        <stop offset="0" stop-color="#19212d" stop-opacity="1"/>
        <stop offset="0.951542" stop-color="#19212d" stop-opacity="0"/>
    </linearGradient>
    <path id="background" fill="url(#linearGradient1)" fill-rule="nonzero" stroke="none" d="M 0 2048 L 4096 2048 L 4096 250 C 4096 111.928833 3984.071289 0 3846 0 L 250 0 C 111.92881 0 0 111.928833 0 250 Z"/>
    <g id="openToWork">
        <path id="OPEN-TO-WORK" fill="#6687ff" fill-rule="nonzero" stroke="none" d="M 2312.800049 1604 L 2312.800049 1544.400024 L 2325.199951 1544.400024 L 2325.199951 1574.23999 L 2321.76001 1573.040039 L 2345.600098 1544.400024 L 2361.120117 1544.400024 L 2337.52002 1572.880005 L 2338.23999 1564.079956 L 2361.600098 1604 L 2347.120117 1604 L 2332.560059 1578.800049 L 2325.199951 1587.679932 L 2325.199951 1604 Z M 2259.439941 1604 L 2259.439941 1544.400024 L 2282.23999 1544.400024 C 2286.34668 1544.400024 2289.986572 1545.119995 2293.159912 1546.560059 C 2296.333252 1548 2298.82666 1550.133301 2300.639893 1552.959961 C 2302.453369 1555.786621 2303.360107 1559.280029 2303.360107 1563.439941 C 2303.360107 1567.493408 2302.426758 1570.946655 2300.560059 1573.800049 C 2298.693359 1576.65332 2296.186768 1578.800049 2293.040039 1580.23999 L 2306.639893 1604 L 2292.719971 1604 L 2278 1577.679932 L 2286 1582.400024 L 2271.840088 1582.400024 L 2271.840088 1604 Z M 2271.840088 1571.599976 L 2282.320068 1571.599976 C 2284.080078 1571.599976 2285.600098 1571.253296 2286.879883 1570.560059 C 2288.159912 1569.866699 2289.159912 1568.906738 2289.879883 1567.679932 C 2290.600098 1566.453369 2290.959961 1565.040039 2290.959961 1563.439941 C 2290.959961 1561.786621 2290.600098 1560.34668 2289.879883 1559.119995 C 2289.159912 1557.893311 2288.159912 1556.93335 2286.879883 1556.23999 C 2285.600098 1555.546631 2284.080078 1555.199951 2282.320068 1555.199951 L 2271.840088 1555.199951 Z M 2219.040039 1604.959961 C 2214.560059 1604.959961 2210.399902 1604.186646 2206.560059 1602.640015 C 2202.719971 1601.093262 2199.373291 1598.920044 2196.52002 1596.119995 C 2193.666748 1593.319946 2191.439941 1590.053345 2189.840088 1586.320068 C 2188.23999 1582.58667 2187.439941 1578.533325 2187.439941 1574.160034 C 2187.439941 1569.786621 2188.226563 1565.733398 2189.800049 1562 C 2191.373291 1558.266602 2193.58667 1555.013306 2196.439941 1552.23999 C 2199.293457 1549.466675 2202.639893 1547.306641 2206.47998 1545.76001 C 2210.320068 1544.213379 2214.506592 1543.439941 2219.040039 1543.439941 C 2223.573242 1543.439941 2227.76001 1544.213379 2231.600098 1545.76001 C 2235.439941 1547.306641 2238.786621 1549.466675 2241.639893 1552.23999 C 2244.493408 1555.013306 2246.706543 1558.266602 2248.280029 1562 C 2249.853271 1565.733398 2250.639893 1569.786621 2250.639893 1574.160034 C 2250.639893 1578.533325 2249.840088 1582.58667 2248.23999 1586.320068 C 2246.639893 1590.053345 2244.41333 1593.319946 2241.560059 1596.119995 C 2238.706543 1598.920044 2235.360107 1601.093262 2231.52002 1602.640015 C 2227.679932 1604.186646 2223.52002 1604.959961 2219.040039 1604.959961 Z M 2219.040039 1593.76001 C 2221.76001 1593.76001 2224.280029 1593.280029 2226.600098 1592.320068 C 2228.919922 1591.359985 2230.959961 1590.013306 2232.719971 1588.280029 C 2234.47998 1586.546631 2235.840088 1584.47998 2236.800049 1582.079956 C 2237.76001 1579.679932 2238.23999 1577.040039 2238.23999 1574.160034 C 2238.23999 1571.280029 2237.76001 1568.65332 2236.800049 1566.280029 C 2235.840088 1563.906616 2234.47998 1561.839966 2232.719971 1560.079956 C 2230.959961 1558.319946 2228.919922 1556.973389 2226.600098 1556.040039 C 2224.280029 1555.106689 2221.76001 1554.640015 2219.040039 1554.640015 C 2216.320068 1554.640015 2213.800049 1555.106689 2211.47998 1556.040039 C 2209.159912 1556.973389 2207.120117 1558.319946 2205.360107 1560.079956 C 2203.600098 1561.839966 2202.23999 1563.906616 2201.280029 1566.280029 C 2200.320068 1568.65332 2199.840088 1571.280029 2199.840088 1574.160034 C 2199.840088 1577.040039 2200.320068 1579.679932 2201.280029 1582.079956 C 2202.23999 1584.47998 2203.600098 1586.546631 2205.360107 1588.280029 C 2207.120117 1590.013306 2209.159912 1591.359985 2211.47998 1592.320068 C 2213.800049 1593.280029 2216.320068 1593.76001 2219.040039 1593.76001 Z M 2119.439941 1604 L 2103.840088 1544.400024 L 2117.280029 1544.400024 L 2129.040039 1594.320068 L 2125.439941 1594.320068 L 2137.840088 1544.400024 L 2150.639893 1544.400024 L 2163.040039 1594.320068 L 2159.439941 1594.320068 L 2171.199951 1544.400024 L 2184.639893 1544.400024 L 2169.040039 1604 L 2154.639893 1604 L 2142.159912 1556 L 2146.320068 1556 L 2133.840088 1604 Z M 2053.439941 1604.959961 C 2048.959961 1604.959961 2044.800049 1604.186646 2040.959961 1602.640015 C 2037.119995 1601.093262 2033.773315 1598.920044 2030.920044 1596.119995 C 2028.06665 1593.319946 2025.839966 1590.053345 2024.23999 1586.320068 C 2022.640015 1582.58667 2021.839966 1578.533325 2021.839966 1574.160034 C 2021.839966 1569.786621 2022.626709 1565.733398 2024.199951 1562 C 2025.773315 1558.266602 2027.986694 1555.013306 2030.839966 1552.23999 C 2033.693359 1549.466675 2037.040039 1547.306641 2040.880005 1545.76001 C 2044.719971 1544.213379 2048.906738 1543.439941 2053.439941 1543.439941 C 2057.973389 1543.439941 2062.159912 1544.213379 2066 1545.76001 C 2069.840088 1547.306641 2073.186768 1549.466675 2076.040039 1552.23999 C 2078.893311 1555.013306 2081.106689 1558.266602 2082.679932 1562 C 2084.253418 1565.733398 2085.040039 1569.786621 2085.040039 1574.160034 C 2085.040039 1578.533325 2084.23999 1582.58667 2082.639893 1586.320068 C 2081.040039 1590.053345 2078.813232 1593.319946 2075.959961 1596.119995 C 2073.106689 1598.920044 2069.76001 1601.093262 2065.919922 1602.640015 C 2062.080078 1604.186646 2057.919922 1604.959961 2053.439941 1604.959961 Z M 2053.439941 1593.76001 C 2056.159912 1593.76001 2058.679932 1593.280029 2061 1592.320068 C 2063.320068 1591.359985 2065.360107 1590.013306 2067.120117 1588.280029 C 2068.880127 1586.546631 2070.23999 1584.47998 2071.199951 1582.079956 C 2072.159912 1579.679932 2072.639893 1577.040039 2072.639893 1574.160034 C 2072.639893 1571.280029 2072.159912 1568.65332 2071.199951 1566.280029 C 2070.23999 1563.906616 2068.880127 1561.839966 2067.120117 1560.079956 C 2065.360107 1558.319946 2063.320068 1556.973389 2061 1556.040039 C 2058.679932 1555.106689 2056.159912 1554.640015 2053.439941 1554.640015 C 2050.719971 1554.640015 2048.199951 1555.106689 2045.880005 1556.040039 C 2043.559937 1556.973389 2041.52002 1558.319946 2039.76001 1560.079956 C 2038 1561.839966 2036.640015 1563.906616 2035.680054 1566.280029 C 2034.719971 1568.65332 2034.23999 1571.280029 2034.23999 1574.160034 C 2034.23999 1577.040039 2034.719971 1579.679932 2035.680054 1582.079956 C 2036.640015 1584.47998 2038 1586.546631 2039.76001 1588.280029 C 2041.52002 1590.013306 2043.559937 1591.359985 2045.880005 1592.320068 C 2048.199951 1593.280029 2050.719971 1593.76001 2053.439941 1593.76001 Z M 1992.560059 1604 L 1992.560059 1555.199951 L 1977.439941 1555.199951 L 1977.439941 1544.400024 L 2019.839966 1544.400024 L 2019.839966 1555.199951 L 2004.959961 1555.199951 L 2004.959961 1604 Z M 1908.079956 1604 L 1908.079956 1544.400024 L 1917.599976 1544.400024 L 1949.599976 1586.560059 L 1944.47998 1587.76001 L 1944.47998 1544.400024 L 1956.880005 1544.400024 L 1956.880005 1604 L 1947.280029 1604 L 1915.839966 1561.52002 L 1920.47998 1560.320068 L 1920.47998 1604 Z M 1860.959961 1604 L 1860.959961 1544.400024 L 1901.040039 1544.400024 L 1901.040039 1555.199951 L 1873.359985 1555.199951 L 1873.359985 1568.719971 L 1899.439941 1568.719971 L 1899.439941 1579.52002 L 1873.359985 1579.52002 L 1873.359985 1593.199951 L 1901.040039 1593.199951 L 1901.040039 1604 Z M 1809.040039 1604 L 1809.040039 1544.400024 L 1831.920044 1544.400024 C 1836.026733 1544.400024 1839.666626 1545.119995 1842.839966 1546.560059 C 1846.013306 1548 1848.506714 1550.133301 1850.319946 1552.959961 C 1852.133301 1555.786621 1853.040039 1559.280029 1853.040039 1563.439941 C 1853.040039 1567.493408 1852.119995 1570.93335 1850.280029 1573.76001 C 1848.439941 1576.58667 1845.93335 1578.733398 1842.76001 1580.199951 C 1839.58667 1581.666748 1835.973389 1582.400024 1831.920044 1582.400024 L 1821.439941 1582.400024 L 1821.439941 1604 Z M 1821.439941 1571.599976 L 1832 1571.599976 C 1833.76001 1571.599976 1835.280029 1571.253296 1836.560059 1570.560059 C 1837.839966 1569.866699 1838.839966 1568.906738 1839.560059 1567.679932 C 1840.280029 1566.453369 1840.640015 1565.040039 1840.640015 1563.439941 C 1840.640015 1561.786621 1840.280029 1560.34668 1839.560059 1559.119995 C 1838.839966 1557.893311 1837.839966 1556.93335 1836.560059 1556.23999 C 1835.280029 1555.546631 1833.76001 1555.199951 1832 1555.199951 L 1821.439941 1555.199951 Z M 1768.640015 1604.959961 C 1764.160034 1604.959961 1760 1604.186646 1756.160034 1602.640015 C 1752.319946 1601.093262 1748.973389 1598.920044 1746.119995 1596.119995 C 1743.266602 1593.319946 1741.040039 1590.053345 1739.439941 1586.320068 C 1737.839966 1582.58667 1737.040039 1578.533325 1737.040039 1574.160034 C 1737.040039 1569.786621 1737.82666 1565.733398 1739.400024 1562 C 1740.973389 1558.266602 1743.186646 1555.013306 1746.040039 1552.23999 C 1748.893311 1549.466675 1752.23999 1547.306641 1756.079956 1545.76001 C 1759.920044 1544.213379 1764.106689 1543.439941 1768.640015 1543.439941 C 1773.17334 1543.439941 1777.359985 1544.213379 1781.199951 1545.76001 C 1785.040039 1547.306641 1788.386597 1549.466675 1791.23999 1552.23999 C 1794.093384 1555.013306 1796.306641 1558.266602 1797.880005 1562 C 1799.453369 1565.733398 1800.23999 1569.786621 1800.23999 1574.160034 C 1800.23999 1578.533325 1799.440063 1582.58667 1797.839966 1586.320068 C 1796.23999 1590.053345 1794.013306 1593.319946 1791.160034 1596.119995 C 1788.306641 1598.920044 1784.959961 1601.093262 1781.119995 1602.640015 C 1777.280029 1604.186646 1773.119995 1604.959961 1768.640015 1604.959961 Z M 1768.640015 1593.76001 C 1771.359985 1593.76001 1773.880005 1593.280029 1776.199951 1592.320068 C 1778.52002 1591.359985 1780.559937 1590.013306 1782.319946 1588.280029 C 1784.079956 1586.546631 1785.439941 1584.47998 1786.400024 1582.079956 C 1787.359985 1579.679932 1787.839966 1577.040039 1787.839966 1574.160034 C 1787.839966 1571.280029 1787.359985 1568.65332 1786.400024 1566.280029 C 1785.439941 1563.906616 1784.079956 1561.839966 1782.319946 1560.079956 C 1780.559937 1558.319946 1778.52002 1556.973389 1776.199951 1556.040039 C 1773.880005 1555.106689 1771.359985 1554.640015 1768.640015 1554.640015 C 1765.920044 1554.640015 1763.400024 1555.106689 1761.079956 1556.040039 C 1758.76001 1556.973389 1756.719971 1558.319946 1754.959961 1560.079956 C 1753.199951 1561.839966 1751.839966 1563.906616 1750.880005 1566.280029 C 1749.920044 1568.65332 1749.439941 1571.280029 1749.439941 1574.160034 C 1749.439941 1577.040039 1749.920044 1579.679932 1750.880005 1582.079956 C 1751.839966 1584.47998 1753.199951 1586.546631 1754.959961 1588.280029 C 1756.719971 1590.013306 1758.76001 1591.359985 1761.079956 1592.320068 C 1763.400024 1593.280029 1765.920044 1593.76001 1768.640015 1593.76001 Z"/>
        <circle cx="1684.5" cy="1574.5" r="15" fill="#6687ff" />
        <circle id="pingShine" cx="1684.5" cy="1574.5" r="15" fill="#6687ff" />
    </g>
    <g id="roles">
        <path id="Full-Stack-Software-Engineer" fill="#96a8cf" fill-rule="nonzero" stroke="none" d="M 2584.790039 1324 L 2584.790039 1280.919922 L 2592.090088 1280.919922 L 2592.090088 1288.820068 L 2591.290039 1287.659912 C 2592.290039 1285.219971 2593.83667 1283.396729 2595.929932 1282.189941 C 2598.023438 1280.983398 2600.550049 1280.380005 2603.51001 1280.380005 L 2606.189941 1280.380005 L 2606.189941 1287.47998 L 2602.429932 1287.47998 C 2599.376709 1287.47998 2596.92334 1288.42334 2595.070068 1290.310059 C 2593.216553 1292.196655 2592.290039 1294.866699 2592.290039 1298.320068 L 2592.290039 1324 Z M 2555.570068 1324.959961 C 2551.409912 1324.959961 2547.693359 1323.973389 2544.419922 1322 C 2541.146729 1320.026611 2538.57666 1317.32666 2536.709961 1313.900024 C 2534.843262 1310.473389 2533.909912 1306.613281 2533.909912 1302.320068 C 2533.909912 1297.986572 2534.833252 1294.143311 2536.679932 1290.790039 C 2538.526611 1287.436646 2541.033203 1284.793335 2544.199951 1282.859985 C 2547.366699 1280.926636 2550.929932 1279.959961 2554.889893 1279.959961 C 2558.07666 1279.959961 2560.91333 1280.526611 2563.399902 1281.659912 C 2565.886719 1282.793335 2568 1284.33667 2569.73999 1286.290039 C 2571.47998 1288.243408 2572.810059 1290.453369 2573.72998 1292.919922 C 2574.649902 1295.386719 2575.110107 1297.959961 2575.110107 1300.640015 C 2575.110107 1301.253418 2575.080078 1301.91333 2575.02002 1302.619995 C 2574.959961 1303.32666 2574.863281 1304.013306 2574.72998 1304.679932 L 2539.370117 1304.679932 L 2539.370117 1298.280029 L 2570.449951 1298.280029 L 2566.870117 1301.119995 C 2567.363281 1298.34668 2567.106689 1295.866699 2566.100098 1293.679932 C 2565.093262 1291.493408 2563.606689 1289.76001 2561.639893 1288.47998 C 2559.67334 1287.199951 2557.42334 1286.560059 2554.889893 1286.560059 C 2552.369873 1286.560059 2550.073242 1287.206665 2548 1288.5 C 2545.926758 1289.793335 2544.31665 1291.616699 2543.169922 1293.969971 C 2542.023438 1296.323364 2541.570068 1299.133301 2541.810059 1302.400024 C 2541.556641 1305.573364 2542.040039 1308.343262 2543.26001 1310.709961 C 2544.47998 1313.07666 2546.186768 1314.909912 2548.379883 1316.209961 C 2550.573242 1317.51001 2552.983398 1318.159912 2555.610107 1318.159912 C 2558.503418 1318.159912 2560.939941 1317.493408 2562.919922 1316.159912 C 2564.899902 1314.82666 2566.496582 1313.133301 2567.709961 1311.080078 L 2573.949951 1314.26001 C 2573.09668 1316.233398 2571.780029 1318.030029 2570 1319.650024 C 2568.219971 1321.27002 2566.106689 1322.560059 2563.659912 1323.52002 C 2561.213379 1324.47998 2558.516602 1324.959961 2555.570068 1324.959961 Z M 2506.449951 1324.959961 C 2502.290039 1324.959961 2498.573242 1323.973389 2495.300049 1322 C 2492.026611 1320.026611 2489.456787 1317.32666 2487.590088 1313.900024 C 2485.723389 1310.473389 2484.790039 1306.613281 2484.790039 1302.320068 C 2484.790039 1297.986572 2485.713379 1294.143311 2487.560059 1290.790039 C 2489.406738 1287.436646 2491.91333 1284.793335 2495.080078 1282.859985 C 2498.246582 1280.926636 2501.810059 1279.959961 2505.77002 1279.959961 C 2508.956787 1279.959961 2511.793213 1280.526611 2514.280029 1281.659912 C 2516.766602 1282.793335 2518.879883 1284.33667 2520.620117 1286.290039 C 2522.360107 1288.243408 2523.689941 1290.453369 2524.610107 1292.919922 C 2525.530029 1295.386719 2525.98999 1297.959961 2525.98999 1300.640015 C 2525.98999 1301.253418 2525.959961 1301.91333 2525.899902 1302.619995 C 2525.840088 1303.32666 2525.743408 1304.013306 2525.610107 1304.679932 L 2490.25 1304.679932 L 2490.25 1298.280029 L 2521.330078 1298.280029 L 2517.75 1301.119995 C 2518.243408 1298.34668 2517.986572 1295.866699 2516.97998 1293.679932 C 2515.973389 1291.493408 2514.486572 1289.76001 2512.52002 1288.47998 C 2510.553223 1287.199951 2508.303467 1286.560059 2505.77002 1286.560059 C 2503.25 1286.560059 2500.953369 1287.206665 2498.879883 1288.5 C 2496.806641 1289.793335 2495.196777 1291.616699 2494.050049 1293.969971 C 2492.90332 1296.323364 2492.449951 1299.133301 2492.689941 1302.400024 C 2492.436768 1305.573364 2492.919922 1308.343262 2494.139893 1310.709961 C 2495.360107 1313.07666 2497.06665 1314.909912 2499.26001 1316.209961 C 2501.453369 1317.51001 2503.863281 1318.159912 2506.48999 1318.159912 C 2509.383301 1318.159912 2511.820068 1317.493408 2513.800049 1316.159912 C 2515.780029 1314.82666 2517.376709 1313.133301 2518.590088 1311.080078 L 2524.830078 1314.26001 C 2523.976563 1316.233398 2522.659912 1318.030029 2520.879883 1319.650024 C 2519.100098 1321.27002 2516.986572 1322.560059 2514.540039 1323.52002 C 2512.093262 1324.47998 2509.396729 1324.959961 2506.449951 1324.959961 Z M 2440.189941 1324 L 2440.189941 1280.919922 L 2447.48999 1280.919922 L 2447.48999 1289.320068 L 2446.310059 1288.599976 C 2447.363281 1285.866699 2449.083252 1283.743408 2451.469971 1282.22998 C 2453.856689 1280.716675 2456.629883 1279.959961 2459.790039 1279.959961 C 2462.896729 1279.959961 2465.669922 1280.65332 2468.110107 1282.040039 C 2470.550049 1283.426758 2472.473389 1285.339966 2473.879883 1287.780029 C 2475.286621 1290.219971 2475.98999 1292.995361 2475.98999 1296.106201 L 2475.98999 1324 L 2468.48999 1324 L 2468.48999 1298.47998 C 2468.48999 1296.093262 2468.056641 1294.06665 2467.189941 1292.400024 C 2466.323242 1290.733398 2465.109375 1289.443359 2463.548096 1288.530029 C 2461.986816 1287.616699 2460.19043 1287.159912 2458.158691 1287.159912 C 2456.126221 1287.159912 2454.31665 1287.616699 2452.72998 1288.530029 C 2451.143311 1289.443359 2449.906738 1290.743408 2449.02002 1292.429932 C 2448.133301 1294.116699 2447.689941 1296.133301 2447.689941 1298.47998 L 2447.689941 1324 Z M 2421.25 1324 L 2421.25 1280.919922 L 2428.75 1280.919922 L 2428.75 1324 Z M 2421.25 1274 L 2421.25 1264.400024 L 2428.75 1264.400024 L 2428.75 1274 Z M 2389.169922 1341.599976 C 2386.129883 1341.599976 2383.320068 1341.119995 2380.73999 1340.159912 C 2378.159912 1339.199951 2375.943359 1337.880005 2374.090088 1336.199951 C 2372.236572 1334.52002 2370.83667 1332.560059 2369.889893 1330.320068 L 2376.810059 1327.119995 C 2377.59668 1329.146729 2379.036621 1330.866699 2381.129883 1332.280029 C 2383.223389 1333.693359 2385.863281 1334.400024 2389.050049 1334.400024 C 2391.503418 1334.400024 2393.72998 1333.929932 2395.72998 1332.98999 C 2397.72998 1332.050049 2399.32666 1330.666748 2400.52002 1328.840088 C 2401.713379 1327.013306 2402.310059 1324.786621 2402.310059 1322.159912 L 2402.310059 1312.52002 L 2403.610107 1313.900024 C 2402.116699 1316.833374 2399.976563 1319.080078 2397.189941 1320.640015 C 2394.40332 1322.199951 2391.31665 1322.97998 2387.929932 1322.97998 C 2383.916748 1322.97998 2380.310059 1322.030029 2377.110107 1320.130005 C 2373.909912 1318.22998 2371.393311 1315.646729 2369.560059 1312.380005 C 2367.726563 1309.113281 2366.810059 1305.466675 2366.810059 1301.439941 C 2366.810059 1297.373291 2367.726563 1293.723389 2369.560059 1290.48999 C 2371.393311 1287.256592 2373.893311 1284.693359 2377.060059 1282.800049 C 2380.226563 1280.906738 2383.830078 1279.959961 2387.870117 1279.959961 C 2391.256592 1279.959961 2394.313232 1280.716675 2397.040039 1282.22998 C 2399.766602 1283.743408 2401.956543 1285.839966 2403.610107 1288.52002 L 2402.51001 1290.5 L 2402.51001 1280.919922 L 2409.810059 1280.919922 L 2409.810059 1322.159912 C 2409.810059 1325.880005 2408.926758 1329.206665 2407.159912 1332.140015 C 2405.393311 1335.073364 2402.956787 1337.383301 2399.850098 1339.070068 C 2396.743408 1340.756592 2393.18335 1341.599976 2389.169922 1341.599976 Z M 2388.590088 1315.76001 C 2391.176758 1315.76001 2393.496582 1315.123291 2395.550049 1313.849976 C 2397.603271 1312.57666 2399.243408 1310.856689 2400.469971 1308.689941 C 2401.696777 1306.523315 2402.310059 1304.119995 2402.310059 1301.47998 C 2402.310059 1298.839966 2401.693359 1296.43335 2400.459961 1294.26001 C 2399.226563 1292.08667 2397.583252 1290.359985 2395.530029 1289.080078 C 2393.476563 1287.800049 2391.16333 1287.159912 2388.590088 1287.159912 C 2385.963379 1287.159912 2383.593262 1287.800049 2381.47998 1289.080078 C 2379.366699 1290.359985 2377.709961 1292.07666 2376.51001 1294.22998 C 2375.310059 1296.383301 2374.709961 1298.800049 2374.709961 1301.47998 C 2374.709961 1304.106689 2375.310059 1306.503296 2376.51001 1308.669922 C 2377.709961 1310.83667 2379.356689 1312.560059 2381.449951 1313.840088 C 2383.543457 1315.119995 2385.92334 1315.76001 2388.590088 1315.76001 Z M 2322.209961 1324 L 2322.209961 1280.919922 L 2329.51001 1280.919922 L 2329.51001 1289.320068 L 2328.330078 1288.599976 C 2329.383301 1285.866699 2331.103271 1283.743408 2333.48999 1282.22998 C 2335.876709 1280.716675 2338.649902 1279.959961 2341.810059 1279.959961 C 2344.916748 1279.959961 2347.689941 1280.65332 2350.129883 1282.040039 C 2352.570068 1283.426758 2354.493408 1285.339966 2355.899902 1287.780029 C 2357.306641 1290.219971 2358.01001 1292.995361 2358.01001 1296.106201 L 2358.01001 1324 L 2350.51001 1324 L 2350.51001 1298.47998 C 2350.51001 1296.093262 2350.07666 1294.06665 2349.209961 1292.400024 C 2348.343262 1290.733398 2347.129395 1289.443359 2345.568115 1288.530029 C 2344.006836 1287.616699 2342.210449 1287.159912 2340.178711 1287.159912 C 2338.14624 1287.159912 2336.33667 1287.616699 2334.75 1288.530029 C 2333.16333 1289.443359 2331.926758 1290.743408 2331.040039 1292.429932 C 2330.15332 1294.116699 2329.709961 1296.133301 2329.709961 1298.47998 L 2329.709961 1324 Z M 2274.590088 1324 L 2274.590088 1264.400024 L 2313.409912 1264.400024 L 2313.409912 1271.599976 L 2282.48999 1271.599976 L 2282.48999 1290.52002 L 2311.810059 1290.52002 L 2311.810059 1297.719971 L 2282.48999 1297.719971 L 2282.48999 1316.800049 L 2313.409912 1316.800049 L 2313.409912 1324 Z M 2230.689941 1324.959961 C 2226.530029 1324.959961 2222.813232 1323.973389 2219.540039 1322 C 2216.266602 1320.026611 2213.696777 1317.32666 2211.830078 1313.900024 C 2209.963379 1310.473389 2209.030029 1306.613281 2209.030029 1302.320068 C 2209.030029 1297.986572 2209.953369 1294.143311 2211.800049 1290.790039 C 2213.646729 1287.436646 2216.15332 1284.793335 2219.320068 1282.859985 C 2222.486572 1280.926636 2226.050049 1279.959961 2230.01001 1279.959961 C 2233.196777 1279.959961 2236.033203 1280.526611 2238.52002 1281.659912 C 2241.006592 1282.793335 2243.119873 1284.33667 2244.860107 1286.290039 C 2246.600098 1288.243408 2247.929932 1290.453369 2248.850098 1292.919922 C 2249.77002 1295.386719 2250.22998 1297.959961 2250.22998 1300.640015 C 2250.22998 1301.253418 2250.199951 1301.91333 2250.139893 1302.619995 C 2250.080078 1303.32666 2249.983398 1304.013306 2249.850098 1304.679932 L 2214.48999 1304.679932 L 2214.48999 1298.280029 L 2245.570068 1298.280029 L 2241.98999 1301.119995 C 2242.483398 1298.34668 2242.226563 1295.866699 2241.219971 1293.679932 C 2240.213379 1291.493408 2238.726563 1289.76001 2236.76001 1288.47998 C 2234.793213 1287.199951 2232.543457 1286.560059 2230.01001 1286.560059 C 2227.48999 1286.560059 2225.193359 1287.206665 2223.120117 1288.5 C 2221.046631 1289.793335 2219.436768 1291.616699 2218.290039 1293.969971 C 2217.143311 1296.323364 2216.689941 1299.133301 2216.929932 1302.400024 C 2216.676758 1305.573364 2217.159912 1308.343262 2218.379883 1310.709961 C 2219.600098 1313.07666 2221.306641 1314.909912 2223.5 1316.209961 C 2225.693359 1317.51001 2228.103271 1318.159912 2230.72998 1318.159912 C 2233.623291 1318.159912 2236.060059 1317.493408 2238.040039 1316.159912 C 2240.02002 1314.82666 2241.616699 1313.133301 2242.830078 1311.080078 L 2249.070068 1314.26001 C 2248.216553 1316.233398 2246.899902 1318.030029 2245.120117 1319.650024 C 2243.340088 1321.27002 2241.226563 1322.560059 2238.780029 1323.52002 C 2236.333252 1324.47998 2233.636719 1324.959961 2230.689941 1324.959961 Z M 2182.790039 1324 L 2182.790039 1280.919922 L 2190.090088 1280.919922 L 2190.090088 1288.820068 L 2189.290039 1287.659912 C 2190.290039 1285.219971 2191.83667 1283.396729 2193.929932 1282.189941 C 2196.023438 1280.983398 2198.550049 1280.380005 2201.51001 1280.380005 L 2204.189941 1280.380005 L 2204.189941 1287.47998 L 2200.429932 1287.47998 C 2197.376709 1287.47998 2194.92334 1288.42334 2193.070068 1290.310059 C 2191.216553 1292.196655 2190.290039 1294.866699 2190.290039 1298.320068 L 2190.290039 1324 Z M 2149.48999 1324.959961 C 2146.66333 1324.959961 2144.16333 1324.443359 2141.98999 1323.409912 C 2139.81665 1322.376709 2138.116699 1320.943359 2136.889893 1319.109985 C 2135.66333 1317.276611 2135.050049 1315.15332 2135.050049 1312.73999 C 2135.050049 1310.446655 2135.550049 1308.373291 2136.550049 1306.52002 C 2137.550049 1304.666748 2139.100098 1303.100098 2141.199951 1301.820068 C 2143.300049 1300.540039 2145.963379 1299.633301 2149.189941 1299.099976 L 2165.129883 1296.459961 L 2165.129883 1302.73999 L 2150.810059 1305.159912 C 2148.063232 1305.640015 2146.06665 1306.516602 2144.820068 1307.790039 C 2143.573242 1309.063354 2142.949951 1310.619995 2142.949951 1312.459961 C 2142.949951 1314.233398 2143.646729 1315.713379 2145.040039 1316.900024 C 2146.43335 1318.08667 2148.216553 1318.679932 2150.389893 1318.679932 C 2153.083252 1318.679932 2155.436768 1318.103271 2157.449951 1316.949951 C 2159.463379 1315.796631 2161.033447 1314.236694 2162.159912 1312.27002 C 2163.286621 1310.303345 2163.850098 1308.119995 2163.850098 1305.719971 L 2163.850098 1294.719971 C 2163.850098 1292.386719 2162.986572 1290.47998 2161.26001 1289 C 2159.533203 1287.52002 2157.27002 1286.780029 2154.469971 1286.780029 C 2151.976563 1286.780029 2149.786621 1287.416748 2147.899902 1288.689941 C 2146.013428 1289.963379 2144.616699 1291.619995 2143.709961 1293.659912 L 2137.22998 1290.300049 C 2138.043457 1288.32666 2139.333252 1286.560059 2141.100098 1285 C 2142.866699 1283.439941 2144.916748 1282.209961 2147.25 1281.310059 C 2149.583252 1280.409912 2152.036621 1279.959961 2154.610107 1279.959961 C 2157.890137 1279.959961 2160.793213 1280.58667 2163.320068 1281.840088 C 2165.84668 1283.093262 2167.81665 1284.82666 2169.22998 1287.040039 C 2170.643311 1289.253418 2171.350098 1291.813232 2171.350098 1294.719971 L 2171.350098 1324 L 2164.050049 1324 L 2164.050049 1315.820068 L 2165.389893 1316.359985 C 2164.51001 1318.040039 2163.286621 1319.526611 2161.719971 1320.820068 C 2160.15332 1322.113281 2158.340088 1323.126709 2156.280029 1323.859985 C 2154.219971 1324.593262 2151.956787 1324.959961 2149.48999 1324.959961 Z M 2082.310059 1324 L 2067.51001 1280.919922 L 2075.709961 1280.919922 L 2087.469971 1316.939941 L 2084.590088 1316.919922 L 2096.110107 1280.919922 L 2103.209961 1280.919922 L 2114.709961 1316.919922 L 2111.830078 1316.939941 L 2123.649902 1280.919922 L 2131.810059 1280.919922 L 2116.98999 1324 L 2109.889893 1324 L 2098.51001 1288.02002 L 2100.810059 1288.02002 L 2089.409912 1324 Z M 2058.209961 1324.47998 C 2054.01001 1324.47998 2050.766602 1323.283325 2048.47998 1320.890015 C 2046.193359 1318.496582 2045.050049 1315.100098 2045.050049 1310.699951 L 2045.050049 1288.02002 L 2037.27002 1288.02002 L 2037.27002 1280.919922 L 2038.869995 1280.919922 C 2040.790039 1280.919922 2042.300049 1280.330078 2043.400024 1279.150024 C 2044.5 1277.969971 2045.050049 1276.419922 2045.050049 1274.5 L 2045.050049 1271 L 2052.550049 1271 L 2052.550049 1280.919922 L 2062.189941 1280.919922 L 2062.189941 1288.02002 L 2052.550049 1288.02002 L 2052.550049 1310.5 C 2052.550049 1311.953369 2052.776611 1313.213379 2053.22998 1314.280029 C 2053.68335 1315.34668 2054.439941 1316.179932 2055.5 1316.780029 C 2056.560059 1317.380005 2057.956543 1317.679932 2059.689941 1317.679932 C 2060.103271 1317.679932 2060.590088 1317.65332 2061.149902 1317.599976 C 2061.709961 1317.546631 2062.216553 1317.493408 2062.669922 1317.439941 L 2062.669922 1324 C 2061.98999 1324.146729 2061.223389 1324.263306 2060.370117 1324.349976 C 2059.516602 1324.436646 2058.796631 1324.47998 2058.209961 1324.47998 Z M 2012.290039 1324 L 2012.290039 1288.02002 L 2004.030029 1288.02002 L 2004.030029 1280.919922 L 2012.290039 1280.919922 L 2012.290039 1277.880005 C 2012.290039 1274.773315 2012.959961 1272.150024 2014.300049 1270.01001 C 2015.640015 1267.869995 2017.449951 1266.23999 2019.72998 1265.119995 C 2022.01001 1264 2024.543335 1263.439941 2027.329956 1263.439941 C 2027.90332 1263.439941 2028.550049 1263.47998 2029.27002 1263.560059 C 2029.98999 1263.640015 2030.57666 1263.733398 2031.030029 1263.840088 L 2031.030029 1270.47998 C 2030.616699 1270.373291 2030.119995 1270.306641 2029.540039 1270.280029 C 2028.959961 1270.253418 2028.516724 1270.23999 2028.209961 1270.23999 C 2025.72998 1270.23999 2023.706665 1270.823242 2022.140015 1271.98999 C 2020.573364 1273.156738 2019.790039 1275.119995 2019.790039 1277.880005 L 2019.790039 1280.919922 L 2029.98999 1280.919922 L 2029.98999 1288.02002 L 2019.790039 1288.02002 L 2019.790039 1324 Z M 1977.22998 1324.959961 C 1973.109985 1324.959961 1969.366699 1323.983398 1966 1322.030029 C 1962.633301 1320.07666 1959.956665 1317.400024 1957.969971 1314 C 1955.983276 1310.599976 1954.98999 1306.733398 1954.98999 1302.400024 C 1954.98999 1298.093262 1955.973267 1294.253418 1957.939941 1290.880005 C 1959.906616 1287.506592 1962.563354 1284.843262 1965.910034 1282.890015 C 1969.256714 1280.936646 1973.030029 1279.959961 1977.22998 1279.959961 C 1981.430054 1279.959961 1985.199951 1280.926636 1988.540039 1282.859985 C 1991.880005 1284.793335 1994.523315 1287.446655 1996.469971 1290.820068 C 1998.416626 1294.193359 1999.390015 1298.053223 1999.390015 1302.400024 C 1999.390015 1306.773438 1998.386719 1310.659912 1996.380005 1314.060059 C 1994.373291 1317.459961 1991.700073 1320.126709 1988.359985 1322.060059 C 1985.02002 1323.993408 1981.310059 1324.959961 1977.22998 1324.959961 Z M 1977.22998 1317.76001 C 1979.936646 1317.76001 1982.363281 1317.093262 1984.51001 1315.76001 C 1986.656738 1314.426636 1988.356689 1312.593262 1989.609985 1310.26001 C 1990.863281 1307.926636 1991.48999 1305.306641 1991.48999 1302.400024 C 1991.48999 1299.493408 1990.863281 1296.896729 1989.609985 1294.609985 C 1988.356689 1292.323242 1986.656738 1290.51001 1984.51001 1289.169922 C 1982.363281 1287.830078 1979.936646 1287.159912 1977.22998 1287.159912 C 1974.523315 1287.159912 1972.093384 1287.830078 1969.939941 1289.169922 C 1967.786621 1290.51001 1966.073364 1292.323242 1964.800049 1294.609985 C 1963.526611 1296.896729 1962.890015 1299.493408 1962.890015 1302.400024 C 1962.890015 1305.306641 1963.526611 1307.926636 1964.800049 1310.26001 C 1966.073364 1312.593262 1967.786621 1314.426636 1969.939941 1315.76001 C 1972.093384 1317.093262 1974.523315 1317.76001 1977.22998 1317.76001 Z M 1926.410034 1324.959961 C 1922.636597 1324.959961 1919.180054 1324.25 1916.040039 1322.830078 C 1912.900024 1321.409912 1910.233398 1319.476685 1908.040039 1317.030029 C 1905.84668 1314.583252 1904.263306 1311.833374 1903.290039 1308.780029 L 1910.150024 1306.02002 C 1911.563354 1309.873291 1913.699951 1312.823242 1916.560059 1314.869995 C 1919.420044 1316.916748 1922.77002 1317.939941 1926.609985 1317.939941 C 1928.956665 1317.939941 1931.013306 1317.563354 1932.780029 1316.810059 C 1934.546631 1316.056641 1935.916626 1315.003418 1936.890015 1313.650024 C 1937.863281 1312.296631 1938.349976 1310.719971 1938.349976 1308.919922 C 1938.349976 1306.373291 1937.643311 1304.376709 1936.22998 1302.929932 C 1934.81665 1301.483398 1932.763306 1300.366699 1930.069946 1299.580078 L 1919.109985 1296.219971 C 1914.763306 1294.91333 1911.440063 1292.823364 1909.140015 1289.949951 C 1906.839966 1287.07666 1905.689941 1283.76001 1905.689941 1280 C 1905.689941 1276.76001 1906.486694 1273.896729 1908.079956 1271.409912 C 1909.67334 1268.92334 1911.869995 1266.973389 1914.670044 1265.560059 C 1917.469971 1264.146729 1920.656616 1263.439941 1924.22998 1263.439941 C 1927.803345 1263.439941 1931.040039 1264.083252 1933.939941 1265.369995 C 1936.839966 1266.656738 1939.306641 1268.380005 1941.339966 1270.540039 C 1943.373291 1272.699951 1944.849976 1275.15332 1945.77002 1277.900024 L 1939.050049 1280.719971 C 1937.809937 1277.386719 1935.900024 1274.843262 1933.319946 1273.090088 C 1930.73999 1271.33667 1927.72998 1270.459961 1924.290039 1270.459961 C 1922.156616 1270.459961 1920.280029 1270.82666 1918.660034 1271.560059 C 1917.040039 1272.293335 1915.783325 1273.343262 1914.890015 1274.709961 C 1913.996704 1276.07666 1913.550049 1277.679932 1913.550049 1279.52002 C 1913.550049 1281.706665 1914.243286 1283.659912 1915.630005 1285.380005 C 1917.016724 1287.100098 1919.136597 1288.393311 1921.98999 1289.26001 L 1931.930054 1292.280029 C 1936.650024 1293.706665 1940.206665 1295.746582 1942.599976 1298.400024 C 1944.993286 1301.053345 1946.189941 1304.359985 1946.189941 1308.320068 C 1946.189941 1311.58667 1945.353394 1314.466675 1943.680054 1316.959961 C 1942.006714 1319.453369 1939.68335 1321.409912 1936.709961 1322.830078 C 1933.736694 1324.25 1930.303345 1324.959961 1926.410034 1324.959961 Z M 1846.650024 1324 L 1846.650024 1263.439941 L 1854.150024 1263.439941 L 1854.150024 1304.939941 L 1851.109985 1304.280029 L 1873.98999 1280.919922 L 1883.51001 1280.919922 L 1866.949951 1298.219971 L 1884.630005 1324 L 1875.829956 1324 L 1859.630005 1300.640015 L 1864.25 1300.439941 L 1851.72998 1313.560059 L 1854.150024 1308.099976 L 1854.150024 1324 Z M 1818.48999 1324.959961 C 1814.236694 1324.959961 1810.473389 1323.969971 1807.199951 1321.98999 C 1803.926636 1320.01001 1801.353394 1317.31665 1799.47998 1313.909912 C 1797.606689 1310.503296 1796.670044 1306.660034 1796.670044 1302.380005 C 1796.670044 1298.099976 1797.603271 1294.27002 1799.469971 1290.890015 C 1801.33667 1287.51001 1803.910034 1284.843262 1807.189941 1282.890015 C 1810.469971 1280.936646 1814.236694 1279.959961 1818.48999 1279.959961 C 1821.303345 1279.959961 1823.936646 1280.459961 1826.390015 1281.459961 C 1828.843384 1282.459961 1830.996704 1283.820068 1832.849976 1285.540039 C 1834.703369 1287.26001 1836.07666 1289.26001 1836.969971 1291.540039 L 1830.290039 1294.76001 C 1829.303345 1292.493408 1827.766724 1290.660034 1825.680054 1289.26001 C 1823.593384 1287.859985 1821.196655 1287.159912 1818.48999 1287.159912 C 1815.849976 1287.159912 1813.476685 1287.81665 1811.369995 1289.130005 C 1809.263306 1290.443359 1807.603394 1292.256592 1806.390015 1294.570068 C 1805.176636 1296.883301 1804.569946 1299.513306 1804.569946 1302.459961 C 1804.569946 1305.366699 1805.176636 1307.976685 1806.390015 1310.290039 C 1807.603394 1312.603271 1809.263306 1314.426636 1811.369995 1315.76001 C 1813.476685 1317.093262 1815.849976 1317.76001 1818.48999 1317.76001 C 1821.209961 1317.76001 1823.599976 1317.060059 1825.660034 1315.659912 C 1827.719971 1314.26001 1829.263306 1312.386719 1830.290039 1310.040039 L 1836.969971 1313.400024 C 1836.089966 1315.600098 1834.723389 1317.573242 1832.869995 1319.320068 C 1831.016602 1321.06665 1828.863403 1322.443359 1826.410034 1323.449951 C 1823.956665 1324.456665 1821.31665 1324.959961 1818.48999 1324.959961 Z M 1765.130005 1324.959961 C 1762.303345 1324.959961 1759.803345 1324.443359 1757.630005 1323.409912 C 1755.456665 1322.376709 1753.756714 1320.943359 1752.530029 1319.109985 C 1751.303345 1317.276611 1750.689941 1315.15332 1750.689941 1312.73999 C 1750.689941 1310.446655 1751.189941 1308.373291 1752.189941 1306.52002 C 1753.190063 1304.666748 1754.73999 1303.100098 1756.839966 1301.820068 C 1758.940063 1300.540039 1761.603271 1299.633301 1764.829956 1299.099976 L 1780.77002 1296.459961 L 1780.77002 1302.73999 L 1766.449951 1305.159912 C 1763.703369 1305.640015 1761.706665 1306.516602 1760.459961 1307.790039 C 1759.213379 1309.063354 1758.589966 1310.619995 1758.589966 1312.459961 C 1758.589966 1314.233398 1759.286621 1315.713379 1760.680054 1316.900024 C 1762.073364 1318.08667 1763.856689 1318.679932 1766.030029 1318.679932 C 1768.723389 1318.679932 1771.07666 1318.103271 1773.089966 1316.949951 C 1775.103394 1315.796631 1776.67334 1314.236694 1777.800049 1312.27002 C 1778.926636 1310.303345 1779.48999 1308.119995 1779.48999 1305.719971 L 1779.48999 1294.719971 C 1779.48999 1292.386719 1778.626709 1290.47998 1776.900024 1289 C 1775.17334 1287.52002 1772.910034 1286.780029 1770.109985 1286.780029 C 1767.616699 1286.780029 1765.426636 1287.416748 1763.540039 1288.689941 C 1761.65332 1289.963379 1760.256714 1291.619995 1759.349976 1293.659912 L 1752.869995 1290.300049 C 1753.68335 1288.32666 1754.973267 1286.560059 1756.73999 1285 C 1758.506714 1283.439941 1760.556641 1282.209961 1762.890015 1281.310059 C 1765.223389 1280.409912 1767.676636 1279.959961 1770.25 1279.959961 C 1773.530029 1279.959961 1776.43335 1280.58667 1778.959961 1281.840088 C 1781.486694 1283.093262 1783.456665 1284.82666 1784.869995 1287.040039 C 1786.283325 1289.253418 1786.98999 1291.813232 1786.98999 1294.719971 L 1786.98999 1324 L 1779.689941 1324 L 1779.689941 1315.820068 L 1781.030029 1316.359985 C 1780.150024 1318.040039 1778.926636 1319.526611 1777.359985 1320.820068 C 1775.793335 1322.113281 1773.97998 1323.126709 1771.920044 1323.859985 C 1769.859985 1324.593262 1767.59668 1324.959961 1765.130005 1324.959961 Z M 1738.910034 1324.47998 C 1734.709961 1324.47998 1731.466675 1323.283325 1729.180054 1320.890015 C 1726.893311 1318.496582 1725.75 1315.100098 1725.75 1310.699951 L 1725.75 1288.02002 L 1717.969971 1288.02002 L 1717.969971 1280.919922 L 1719.569946 1280.919922 C 1721.48999 1280.919922 1723 1280.330078 1724.099976 1279.150024 C 1725.199951 1277.969971 1725.75 1276.419922 1725.75 1274.5 L 1725.75 1271 L 1733.25 1271 L 1733.25 1280.919922 L 1742.890015 1280.919922 L 1742.890015 1288.02002 L 1733.25 1288.02002 L 1733.25 1310.5 C 1733.25 1311.953369 1733.476685 1313.213379 1733.930054 1314.280029 C 1734.383301 1315.34668 1735.140015 1316.179932 1736.199951 1316.780029 C 1737.26001 1317.380005 1738.656616 1317.679932 1740.390015 1317.679932 C 1740.803345 1317.679932 1741.290039 1317.65332 1741.849976 1317.599976 C 1742.410034 1317.546631 1742.916626 1317.493408 1743.369995 1317.439941 L 1743.369995 1324 C 1742.689941 1324.146729 1741.92334 1324.263306 1741.069946 1324.349976 C 1740.216675 1324.436646 1739.496704 1324.47998 1738.910034 1324.47998 Z M 1691.01001 1324.959961 C 1687.236694 1324.959961 1683.780029 1324.25 1680.640015 1322.830078 C 1677.5 1321.409912 1674.833374 1319.476685 1672.640015 1317.030029 C 1670.446655 1314.583252 1668.863281 1311.833374 1667.890015 1308.780029 L 1674.75 1306.02002 C 1676.16333 1309.873291 1678.299927 1312.823242 1681.160034 1314.869995 C 1684.02002 1316.916748 1687.369995 1317.939941 1691.209961 1317.939941 C 1693.556641 1317.939941 1695.613281 1317.563354 1697.380005 1316.810059 C 1699.146729 1316.056641 1700.516602 1315.003418 1701.48999 1313.650024 C 1702.463379 1312.296631 1702.949951 1310.719971 1702.949951 1308.919922 C 1702.949951 1306.373291 1702.243286 1304.376709 1700.829956 1302.929932 C 1699.416626 1301.483398 1697.363403 1300.366699 1694.670044 1299.580078 L 1683.709961 1296.219971 C 1679.363281 1294.91333 1676.040039 1292.823364 1673.73999 1289.949951 C 1671.439941 1287.07666 1670.290039 1283.76001 1670.290039 1280 C 1670.290039 1276.76001 1671.08667 1273.896729 1672.680054 1271.409912 C 1674.273315 1268.92334 1676.469971 1266.973389 1679.27002 1265.560059 C 1682.070068 1264.146729 1685.256592 1263.439941 1688.829956 1263.439941 C 1692.40332 1263.439941 1695.640015 1264.083252 1698.540039 1265.369995 C 1701.440063 1266.656738 1703.906616 1268.380005 1705.939941 1270.540039 C 1707.973389 1272.699951 1709.449951 1275.15332 1710.369995 1277.900024 L 1703.650024 1280.719971 C 1702.410034 1277.386719 1700.5 1274.843262 1697.920044 1273.090088 C 1695.339966 1271.33667 1692.330078 1270.459961 1688.890015 1270.459961 C 1686.756714 1270.459961 1684.880005 1270.82666 1683.26001 1271.560059 C 1681.640015 1272.293335 1680.383301 1273.343262 1679.48999 1274.709961 C 1678.59668 1276.07666 1678.150024 1277.679932 1678.150024 1279.52002 C 1678.150024 1281.706665 1678.843384 1283.659912 1680.22998 1285.380005 C 1681.616699 1287.100098 1683.736694 1288.393311 1686.589966 1289.26001 L 1696.530029 1292.280029 C 1701.25 1293.706665 1704.806641 1295.746582 1707.199951 1298.400024 C 1709.593384 1301.053345 1710.790039 1304.359985 1710.790039 1308.320068 C 1710.790039 1311.58667 1709.953369 1314.466675 1708.280029 1316.959961 C 1706.606689 1319.453369 1704.283325 1321.409912 1701.310059 1322.830078 C 1698.33667 1324.25 1694.90332 1324.959961 1691.01001 1324.959961 Z M 1627.650024 1305.859985 L 1627.650024 1299.060059 L 1657.650024 1299.060059 L 1657.650024 1305.859985 Z M 1608.150024 1324 L 1608.150024 1263.439941 L 1615.650024 1263.439941 L 1615.650024 1324 Z M 1589.209961 1324 L 1589.209961 1263.439941 L 1596.709961 1263.439941 L 1596.709961 1324 Z M 1558.170044 1324.959961 C 1555.049927 1324.959961 1552.26001 1324.23999 1549.800049 1322.800049 C 1547.339966 1321.359985 1545.420044 1319.350098 1544.040039 1316.77002 C 1542.660034 1314.189941 1541.969971 1311.206665 1541.969971 1307.820068 L 1541.969971 1280.919922 L 1549.469971 1280.919922 L 1549.469971 1307.040039 C 1549.469971 1309.17334 1549.90332 1311.046631 1550.77002 1312.659912 C 1551.636719 1314.273315 1552.853271 1315.526611 1554.420044 1316.419922 C 1555.986694 1317.313354 1557.783325 1317.76001 1559.810059 1317.76001 C 1561.849976 1317.76001 1563.660034 1317.303345 1565.23999 1316.390015 C 1566.820068 1315.476685 1568.053345 1314.17334 1568.939941 1312.47998 C 1569.82666 1310.786621 1570.27002 1308.773315 1570.27002 1306.439941 L 1570.27002 1280.919922 L 1577.77002 1280.919922 L 1577.77002 1324 L 1570.469971 1324 L 1570.469971 1315.599976 L 1571.650024 1316.320068 C 1570.636719 1319.053345 1568.926636 1321.176636 1566.52002 1322.689941 C 1564.113281 1324.203369 1561.329956 1324.959961 1558.170044 1324.959961 Z M 1497.930054 1324 L 1497.930054 1264.400024 L 1535.72998 1264.400024 L 1535.72998 1271.599976 L 1505.829956 1271.599976 L 1505.829956 1290.919922 L 1532.930054 1290.919922 L 1532.930054 1298.119995 L 1505.829956 1298.119995 L 1505.829956 1324 Z"/>
    </g>
    <g id="name">
        <path id="Im" fill="#dce2ef" fill-rule="nonzero" stroke="none" d="M 712.656738 1116 L 712.656738 907.600464 L 747.97052 907.600464 L 747.97052 950.07373 L 743.036255 943.591553 C 748.067261 930.433472 756.274841 920.371582 767.659119 913.405518 C 779.043457 906.439453 791.830444 902.956543 806.020508 902.956543 C 822.403564 902.956543 837.093323 907.455322 850.090149 916.453125 C 863.086914 925.450928 872.036255 937.238159 876.938232 951.815308 L 866.682739 952.492554 C 872.29425 936.17395 881.501587 923.838379 894.304871 915.485596 C 907.108215 907.132813 921.475403 902.956543 937.406982 902.956543 C 951.66156 902.956543 964.658203 906.310425 976.397278 913.018555 C 988.136292 919.726563 997.504822 928.982178 1004.503113 940.785767 C 1011.501404 952.589355 1015.000488 966.005127 1015.000488 981.033691 L 1015.000488 1116 L 978.719238 1116 L 978.719238 992.546997 C 978.719238 981.001465 976.655273 971.19751 972.527222 963.13501 C 968.399231 955.07251 962.755554 948.832153 955.596008 944.413818 C 948.436462 939.995605 940.116028 937.786499 930.634521 937.786499 C 921.41095 937.786499 913.106689 939.995605 905.721375 944.413818 C 898.33606 948.832153 892.531128 955.12085 888.306396 963.280151 C 884.081604 971.439453 881.969238 981.194946 881.969238 992.546997 L 881.969238 1116 L 845.687988 1116 L 845.687988 992.546997 C 845.687988 981.001465 843.624023 971.19751 839.495972 963.13501 C 835.367981 955.07251 829.724304 948.832153 822.564758 944.413818 C 815.405212 939.995605 807.084778 937.786499 797.603271 937.786499 C 788.186218 937.786499 779.833557 939.995605 772.544983 944.413818 C 765.25647 948.832153 759.499878 955.12085 755.275146 963.280151 C 751.050354 971.439453 748.937988 981.194946 748.937988 992.546997 L 748.937988 1116 Z M 620.744263 920.468262 L 615.229492 827.685059 L 651.026978 827.685059 L 645.899231 920.468262 Z M 511.513489 1116 L 511.513489 827.685059 L 549.729736 827.685059 L 549.729736 1116 Z"/>
        <path id="Erich-Nguyen" fill="#6687ff" fill-rule="nonzero" stroke="none" d="M 3398.968018 1116 L 3398.968018 904.697998 L 3453.147949 904.697998 L 3453.147949 946.494019 L 3450.052002 937.206055 C 3454.954102 924.563965 3462.887451 915.211548 3473.852539 909.14856 C 3484.817627 903.085449 3497.652832 900.053955 3512.358887 900.053955 C 3528.35498 900.053955 3542.351318 903.407959 3554.348389 910.115967 C 3566.345459 916.823975 3575.697998 926.176392 3582.406006 938.173462 C 3589.114014 950.170532 3592.468018 964.2052 3592.468018 980.277832 L 3592.468018 1116 L 3534.417969 1116 L 3534.417969 992.546997 C 3534.417969 984.291016 3532.80542 977.196045 3529.580566 971.261963 C 3526.355469 965.328003 3521.828369 960.68396 3515.999268 957.329956 C 3510.169922 953.975952 3503.462158 952.29895 3495.875244 952.29895 C 3488.28833 952.29895 3481.528076 953.975952 3475.593994 957.329956 C 3469.659912 960.68396 3465.080566 965.328003 3461.855469 971.261963 C 3458.630371 977.196045 3457.018066 984.291016 3457.018066 992.546997 L 3457.018066 1116 Z M 3264.291992 1120.644043 C 3241.845947 1120.644043 3222.367188 1115.67749 3205.85498 1105.744507 C 3189.343018 1095.811523 3176.572021 1082.460083 3167.541992 1065.689941 C 3158.511963 1048.919922 3153.99707 1030.344116 3153.99707 1009.962036 C 3153.99707 988.805908 3158.705566 969.972046 3168.122559 953.459961 C 3177.539551 936.947876 3190.24585 923.919067 3206.241943 914.373047 C 3222.238037 904.826904 3240.297852 900.053955 3260.422119 900.053955 C 3277.192139 900.053955 3292.026855 902.698486 3304.927002 907.987549 C 3317.827148 913.276489 3328.727539 920.69397 3337.628418 930.23999 C 3346.529541 939.786011 3353.302002 950.81543 3357.946045 963.328491 C 3362.590088 975.841553 3364.912109 989.450928 3364.912109 1004.156982 C 3364.912109 1008.285034 3364.718506 1012.348511 3364.331543 1016.347534 C 3363.94458 1020.346558 3363.235107 1023.765015 3362.202881 1026.603027 L 3203.919922 1026.603027 L 3203.919922 984.032959 L 3329.308105 984.032959 L 3301.831055 1004.156982 C 3304.411133 993.062988 3304.281982 983.19458 3301.444092 974.551514 C 3298.605957 965.908447 3293.639648 959.071533 3286.544434 954.040527 C 3279.449463 949.009521 3270.741943 946.494019 3260.422119 946.494019 C 3250.359863 946.494019 3241.717041 948.944946 3234.49292 953.847046 C 3227.269043 958.749023 3221.851074 965.9729 3218.239014 975.519043 C 3214.626953 985.065063 3213.208008 996.674927 3213.981934 1010.348999 C 3212.949951 1022.217041 3214.368896 1032.666016 3218.239014 1041.696045 C 3222.109131 1050.726074 3228.042969 1057.75647 3236.041016 1062.787476 C 3244.039063 1067.818604 3253.713867 1070.333984 3265.065918 1070.333984 C 3275.385986 1070.333984 3284.222412 1068.27002 3291.575439 1064.14209 C 3298.928467 1060.013916 3304.668945 1054.338013 3308.797119 1047.114014 L 3355.237061 1069.172974 C 3351.108887 1079.493042 3344.594482 1088.522949 3335.693604 1096.262939 C 3326.79248 1104.003052 3316.279053 1110.001465 3304.153076 1114.258545 C 3292.026855 1118.515503 3278.73999 1120.644043 3264.291992 1120.644043 Z M 2966.302002 1201.140015 C 2960.109863 1201.140015 2954.111572 1200.624023 2948.306396 1199.592041 C 2942.501465 1198.560059 2937.406006 1196.883057 2933.02002 1194.561035 L 2933.02002 1146.959961 C 2936.63208 1147.991943 2940.888916 1148.89502 2945.791016 1149.668945 C 2950.693115 1150.442993 2955.208008 1150.830078 2959.335938 1150.830078 C 2970.687988 1150.830078 2978.814941 1148.185547 2983.717041 1142.896484 C 2988.619141 1137.607422 2992.61792 1131.609009 2995.714111 1124.901001 L 3010.032959 1092.005981 L 3009.259033 1140.380981 L 2916.378906 904.697998 L 2978.686035 904.697998 L 3040.218994 1072.269043 L 3016.999023 1072.269043 L 3078.531982 904.697998 L 3140.839111 904.697998 L 3050.281006 1135.737061 C 3044.60498 1150.185059 3037.63916 1162.311035 3029.383057 1172.11499 C 3021.126953 1181.919067 3011.774658 1189.20752 3001.325439 1193.980469 C 2990.876465 1198.75354 2979.202148 1201.140015 2966.302002 1201.140015 Z M 2777.446045 1120.644043 C 2760.417969 1120.644043 2745.905518 1116.967529 2733.908447 1109.614502 C 2721.911377 1102.261475 2712.817139 1092.006104 2706.625 1078.848022 C 2700.432861 1065.689941 2697.336914 1050.339111 2697.336914 1032.794922 L 2697.336914 904.697998 L 2755.386963 904.697998 L 2755.386963 1028.151001 C 2755.386963 1036.149048 2756.999512 1043.179443 2760.224609 1049.242432 C 2763.449463 1055.305542 2768.029053 1060.013916 2773.962891 1063.36792 C 2779.896973 1066.722046 2786.60498 1068.398926 2794.086914 1068.398926 C 2801.827148 1068.398926 2808.599365 1066.722046 2814.404541 1063.36792 C 2820.209473 1060.013916 2824.724365 1055.305542 2827.949463 1049.242432 C 2831.174561 1043.179443 2832.787109 1036.149048 2832.787109 1028.151001 L 2832.787109 904.697998 L 2890.836914 904.697998 L 2890.836914 1116 L 2836.656982 1116 L 2836.656982 1074.203979 L 2839.75293 1083.491943 C 2834.851074 1096.134033 2826.91748 1105.48645 2815.952393 1111.549561 C 2804.987549 1117.612549 2792.1521 1120.644043 2777.446045 1120.644043 Z M 2554.533936 1201.140015 C 2538.280029 1201.140015 2523.187012 1198.43103 2509.254883 1193.012939 C 2495.322998 1187.594971 2483.390625 1180.048584 2473.45752 1170.373535 C 2463.524414 1160.698486 2456.36499 1149.281982 2451.979004 1136.124023 L 2505.771973 1117.161011 C 2508.610107 1126.965088 2514.415039 1134.704956 2523.187012 1140.380981 C 2531.958984 1146.057007 2542.407959 1148.89502 2554.533936 1148.89502 C 2564.080078 1148.89502 2572.335938 1147.153564 2579.302002 1143.67041 C 2586.268066 1140.1875 2591.621582 1135.092041 2595.362549 1128.384033 C 2599.103516 1121.676025 2600.974121 1113.807129 2600.974121 1104.776978 L 2600.974121 1056.401978 L 2612.197021 1070.333984 C 2604.9729 1082.202148 2595.685059 1091.038452 2584.333008 1096.843506 C 2572.980957 1102.648438 2559.694092 1105.551025 2544.471924 1105.551025 C 2524.864014 1105.551025 2507.320068 1101.100586 2491.840088 1092.199463 C 2476.359863 1083.298462 2464.234131 1071.043579 2455.461914 1055.43457 C 2446.689941 1039.825439 2442.303955 1022.088135 2442.303955 1002.222046 C 2442.303955 982.355957 2446.689941 964.747559 2455.461914 949.396484 C 2464.234131 934.04541 2476.230957 921.984009 2491.452881 913.212036 C 2506.675049 904.439941 2523.960938 900.053955 2543.311035 900.053955 C 2558.532959 900.053955 2571.819824 903.085449 2583.172119 909.14856 C 2594.52417 915.211548 2604.198975 924.434937 2612.197021 936.81897 L 2604.843994 950.750977 L 2604.843994 904.697998 L 2659.023926 904.697998 L 2659.023926 1104.776978 C 2659.023926 1123.353027 2654.509033 1139.929443 2645.479004 1154.50647 C 2636.448975 1169.083496 2624.129639 1180.5 2608.520508 1188.755981 C 2592.911377 1197.011963 2574.916016 1201.140015 2554.533936 1201.140015 Z M 2552.599121 1052.918945 C 2562.403076 1052.918945 2570.916992 1050.85498 2578.141113 1046.727051 C 2585.36499 1042.598999 2590.976563 1036.794067 2594.975586 1029.312012 C 2598.974609 1021.829956 2600.974121 1013.058105 2600.974121 1002.995972 C 2600.974121 992.93396 2598.909912 984.097534 2594.781982 976.48645 C 2590.654053 968.875488 2584.978027 962.941528 2577.753906 958.684448 C 2570.530029 954.42749 2562.14502 952.29895 2552.599121 952.29895 C 2542.794922 952.29895 2534.087646 954.42749 2526.476563 958.684448 C 2518.865479 962.941528 2512.931641 968.875488 2508.674561 976.48645 C 2504.41748 984.097534 2502.289063 992.93396 2502.289063 1002.995972 C 2502.289063 1012.800049 2504.41748 1021.442993 2508.674561 1028.925049 C 2512.931641 1036.406982 2518.865479 1042.276489 2526.476563 1046.533447 C 2534.087646 1050.790527 2542.794922 1052.918945 2552.599121 1052.918945 Z M 2167.920898 1116 L 2167.920898 827.685059 L 2213.974121 827.685059 L 2368.773926 1031.634033 L 2344.006104 1037.438965 L 2344.006104 827.685059 L 2403.990967 827.685059 L 2403.990967 1116 L 2357.551025 1116 L 2205.459961 910.503052 L 2227.906006 904.697998 L 2227.906006 1116 Z M 1862.19104 1116 L 1862.19104 823.041016 L 1920.240967 823.041016 L 1920.240967 946.494019 L 1913.275024 937.206055 C 1918.177002 924.563965 1926.110474 915.211548 1937.075439 909.14856 C 1948.040527 903.085449 1960.875977 900.053955 1975.582031 900.053955 C 1991.578125 900.053955 2005.574463 903.407959 2017.571533 910.115967 C 2029.568604 916.823975 2038.921021 926.176392 2045.629028 938.173462 C 2052.336914 950.170532 2055.690918 964.16687 2055.690918 980.162964 L 2055.690918 1116 L 1997.640991 1116 L 1997.640991 992.546997 C 1997.640991 984.291016 1996.028564 977.196045 1992.803467 971.261963 C 1989.578491 965.328003 1985.063477 960.68396 1979.258545 957.329956 C 1973.453491 953.975952 1966.68103 952.29895 1958.94104 952.29895 C 1951.458984 952.29895 1944.750977 953.975952 1938.817017 957.329956 C 1932.882935 960.68396 1928.303467 965.328003 1925.078491 971.261963 C 1921.853516 977.196045 1920.240967 984.291016 1920.240967 992.546997 L 1920.240967 1116 Z M 1729.449951 1120.644043 C 1708.293945 1120.644043 1689.266602 1115.806519 1672.367554 1106.13147 C 1655.468384 1096.456543 1642.05249 1083.234131 1632.119507 1066.463989 C 1622.186401 1049.693848 1617.219971 1030.860107 1617.219971 1009.962036 C 1617.219971 989.063843 1622.121948 970.294556 1631.926025 953.653442 C 1641.730103 937.012451 1655.145874 923.919067 1672.17395 914.373047 C 1689.202026 904.826904 1708.293945 900.053955 1729.449951 900.053955 C 1745.18811 900.053955 1759.764893 902.762939 1773.18103 908.18103 C 1786.597046 913.598999 1798.078003 921.145508 1807.624023 930.820557 C 1817.170044 940.495605 1824.006958 951.911987 1828.13501 965.069946 L 1777.824951 986.741943 C 1774.213013 976.16394 1768.085571 967.779053 1759.442505 961.587036 C 1750.799438 955.39502 1740.802002 952.29895 1729.449951 952.29895 C 1719.387939 952.29895 1710.422485 954.75 1702.553467 959.651978 C 1694.684448 964.554077 1688.492554 971.390991 1683.977539 980.162964 C 1679.462524 988.935059 1677.204956 998.996948 1677.204956 1010.348999 C 1677.204956 1021.70105 1679.462524 1031.762939 1683.977539 1040.534912 C 1688.492554 1049.307129 1694.684448 1056.144043 1702.553467 1061.046021 C 1710.422485 1065.947998 1719.387939 1068.398926 1729.449951 1068.398926 C 1741.060059 1068.398926 1751.121948 1065.302979 1759.635986 1059.111084 C 1768.150024 1052.918945 1774.213013 1044.534058 1777.824951 1033.956055 L 1828.13501 1056.015015 C 1824.265015 1068.399048 1817.557007 1079.49292 1808.010986 1089.296997 C 1798.464966 1099.101074 1786.984009 1106.776489 1773.567993 1112.323486 C 1760.151978 1117.870605 1745.446045 1120.644043 1729.449951 1120.644043 Z M 1525.114014 1116 L 1525.114014 904.697998 L 1583.16394 904.697998 L 1583.16394 1116 Z M 1525.114014 885.734985 L 1525.114014 827.685059 L 1583.16394 827.685059 L 1583.16394 885.734985 Z M 1375.732056 1116 L 1375.732056 904.697998 L 1429.911987 904.697998 L 1429.911987 955.39502 L 1426.041992 948.041992 C 1430.686035 930.239868 1438.36145 918.178589 1449.068481 911.857544 C 1459.775513 905.536499 1472.481934 902.375977 1487.187988 902.375977 L 1499.572021 902.375977 L 1499.572021 952.686035 L 1481.383057 952.686035 C 1467.192871 952.686035 1455.712036 957.007446 1446.939941 965.650513 C 1438.167969 974.293579 1433.781982 986.483887 1433.781982 1002.222046 L 1433.781982 1116 Z M 1152.046021 1116 L 1152.046021 827.685059 L 1345.932983 827.685059 L 1345.932983 879.930054 L 1212.031006 879.930054 L 1212.031006 945.333008 L 1338.192993 945.333008 L 1338.192993 997.578003 L 1212.031006 997.578003 L 1212.031006 1063.755005 L 1345.932983 1063.755005 L 1345.932983 1116 Z"/>
    </g>
    <g id="heyWave">
        <g id="wave">
            <path id="handShadow" fill="#ef9645" stroke="none" d="M 2251.20752 454.169189 C 2260.723145 447.518433 2275.067139 448.793945 2283.611084 455.849609 L 2273.812012 441.606689 C 2265.92627 430.360107 2268.750488 418.192383 2280.007324 410.296509 C 2291.263916 402.430908 2323.161133 423.577759 2323.161133 423.577759 C 2315.20459 412.219849 2316.692627 397.825073 2328.050537 389.858276 C 2339.408447 381.921875 2355.078857 384.665161 2363.0354 396.043335 L 2468.516357 545.052734 L 2455.072998 675.385376 L 2342.880615 634.468506 L 2245.022461 489.376709 C 2236.994873 477.947998 2239.768555 462.186523 2251.20752 454.169189 Z"/>
            <path id="hand" fill="#ffdc5d" stroke="none" d="M 2229.28125 537.065796 C 2229.28125 537.065796 2217.822021 520.363037 2234.535156 508.91394 C 2251.227783 497.464966 2262.676758 514.157593 2262.676758 514.157593 L 2315.832275 591.678955 C 2317.664551 588.621826 2319.668945 585.605225 2321.906006 582.629028 L 2248.130127 475.052734 C 2248.130127 475.052734 2236.681152 458.360107 2253.384033 446.911011 C 2270.07666 435.462036 2281.525635 452.154785 2281.525635 452.154785 L 2350.918213 553.353638 C 2353.499512 551.248047 2356.141602 549.132324 2358.864746 547.057129 L 2278.417969 429.72229 C 2278.417969 429.72229 2266.968994 413.029663 2283.671631 401.580566 C 2300.364502 390.131592 2311.813477 406.824341 2311.813477 406.824341 L 2392.260254 524.138794 C 2395.216309 522.326782 2398.141602 520.757813 2401.077393 519.097656 L 2325.884277 409.446167 C 2325.884277 409.446167 2314.435303 392.753418 2331.12793 381.304443 C 2347.820557 369.855347 2359.269775 386.548096 2359.269775 386.548096 L 2438.775146 502.495972 L 2450.861816 520.130127 C 2400.773682 554.487305 2396.005859 619.122192 2424.623291 660.859009 C 2430.342773 669.210449 2438.694092 663.490967 2438.694092 663.490967 C 2404.347168 613.392578 2414.834473 557.099121 2464.932861 522.751953 L 2450.16333 448.834351 C 2450.16333 448.834351 2444.646484 429.35791 2464.112793 423.830811 C 2483.589355 418.313843 2489.116455 437.790283 2489.116455 437.790283 L 2506.173584 488.445435 C 2512.935547 508.529297 2520.133057 528.542236 2529.658691 547.472168 C 2556.55542 600.921143 2540.490234 667.347778 2489.774414 702.140259 C 2434.452637 740.070801 2358.824219 725.969604 2320.883545 670.657959 L 2229.28125 537.065796 Z"/>
            <g id="waveLines">
                <path id="Path" fill="#5dadec" stroke="none" d="M 2323.475098 685.933472 C 2282.983398 685.933472 2242.066406 645.016602 2242.066406 604.524902 C 2242.066406 598.927002 2237.966797 594.401978 2232.368652 594.401978 C 2226.770752 594.401978 2221.820801 598.927002 2221.820801 604.524902 C 2221.820801 665.262451 2262.737549 706.179321 2323.475098 706.179321 C 2329.072998 706.179321 2333.5979 701.229248 2333.5979 695.631226 C 2333.5979 690.033203 2329.072998 685.933472 2323.475098 685.933472 Z"/>
                <path id="path1" fill="#5dadec" stroke="none" d="M 2272.860352 705.75415 C 2242.491699 705.75415 2222.24585 685.508301 2222.24585 655.139526 C 2222.24585 649.541626 2217.720947 645.016602 2212.122803 645.016602 C 2206.524902 645.016602 2202 649.541626 2202 655.139526 C 2202 695.631226 2232.368652 726 2272.860352 726 C 2278.458496 726 2282.983398 721.475098 2282.983398 715.877075 C 2282.983398 710.279053 2278.458496 705.75415 2272.860352 705.75415 Z M 2444.950195 381.820679 C 2439.362305 381.820679 2434.827148 386.355713 2434.827148 391.943604 C 2434.827148 397.531494 2439.362305 402.066528 2444.950195 402.066528 C 2485.441895 402.066528 2525.933594 438.397705 2525.933594 483.049927 C 2525.933594 488.637695 2530.468506 493.172852 2536.056396 493.172852 C 2541.644287 493.172852 2546.179199 488.637695 2546.179199 483.049927 C 2546.179199 427.232056 2505.687744 381.820679 2444.950195 381.820679 Z"/>
                <path id="path2" fill="#5dadec" stroke="none" d="M 2495.564697 362 C 2489.976807 362 2485.441895 366.109985 2485.441895 371.697754 C 2485.441895 377.285645 2489.976807 382.24585 2495.564697 382.24585 C 2525.933594 382.24585 2545.75415 404.769287 2545.75415 432.435303 C 2545.75415 438.023193 2550.704346 442.558228 2556.302246 442.558228 C 2561.900146 442.558228 2566 438.023193 2566 432.435303 C 2566 393.593628 2536.056396 362 2495.564697 362 Z"/>
            </g>
        </g>
        <path id="hey" fill="#95a8cf" fill-rule="nonzero" stroke="none" d="M 1965.365479 579.348022 L 1964.027954 466.569946 L 1984.892944 466.569946 L 1983.555542 579.348022 Z M 1964.027954 626 L 1964.027954 600.319946 L 1984.892944 600.319946 L 1984.892944 626 Z M 1844.509033 673.079956 C 1841.94104 673.079956 1839.373047 672.874878 1836.805054 672.464722 C 1834.236938 672.054565 1831.793823 671.368042 1829.475464 670.405029 L 1829.475464 652.589478 C 1831.0448 652.839111 1832.997559 653.151245 1835.33374 653.525757 C 1837.669922 653.900269 1839.97937 654.087524 1842.261963 654.087524 C 1849.074341 654.087524 1854.210327 652.625122 1857.670044 649.700439 C 1861.129639 646.775879 1864.411011 641.746826 1867.514038 634.613525 L 1874.950439 617.225952 L 1874.522461 634.50647 L 1825.249023 510.760986 L 1846.863037 510.760986 L 1885.222534 609.20105 L 1878.641968 609.20105 L 1916.840942 510.760986 L 1938.776001 510.760986 L 1886.934448 639.642456 C 1884.437866 645.812866 1881.308105 651.44812 1877.545288 656.548462 C 1873.782349 661.648804 1869.199219 665.679199 1863.795776 668.639526 C 1858.392212 671.599854 1851.963379 673.079956 1844.509033 673.079956 Z M 1760.032471 628.567993 C 1748.904419 628.567993 1738.962402 625.928711 1730.206299 620.650024 C 1721.450073 615.371338 1714.575317 608.148926 1709.582031 598.982544 C 1704.588623 589.816162 1702.092041 579.490723 1702.092041 568.005981 C 1702.092041 556.414307 1704.56189 546.133423 1709.501709 537.163208 C 1714.44165 528.192993 1721.146851 521.122192 1729.617798 515.950439 C 1738.088623 510.778809 1747.620483 508.192993 1758.213501 508.192993 C 1766.737915 508.192993 1774.325928 509.708862 1780.977783 512.740479 C 1787.629639 515.772217 1793.282715 519.900513 1797.937256 525.125732 C 1802.591797 530.350952 1806.149536 536.262573 1808.610474 542.860962 C 1811.071533 549.459351 1812.302002 556.343018 1812.302002 563.511963 C 1812.302002 565.15271 1812.221802 566.918213 1812.061279 568.808472 C 1811.900757 570.698853 1811.642212 572.535645 1811.285522 574.31897 L 1716.69751 574.31897 L 1716.69751 557.198975 L 1799.836548 557.198975 L 1790.26001 564.796021 C 1791.579712 557.377319 1790.893066 550.743408 1788.200195 544.894043 C 1785.507446 539.044678 1781.53064 534.407959 1776.269775 530.984009 C 1771.008911 527.559937 1764.990234 525.848022 1758.213501 525.848022 C 1751.472412 525.848022 1745.328979 527.577759 1739.782715 531.037476 C 1734.236572 534.497192 1729.92981 539.374512 1726.862549 545.6698 C 1723.795166 551.964966 1722.58252 559.481567 1723.224487 568.219971 C 1722.546875 576.70874 1723.839722 584.118408 1727.103271 590.449219 C 1730.366821 596.780151 1734.932007 601.684204 1740.799194 605.161743 C 1746.666504 608.639282 1753.113159 610.378052 1760.139526 610.378052 C 1767.87915 610.378052 1774.397217 608.594727 1779.693726 605.027954 C 1784.990234 601.461304 1789.261353 596.931641 1792.506958 591.438965 L 1809.198975 599.945557 C 1806.916382 605.224243 1803.394287 610.030273 1798.63269 614.36377 C 1793.871216 618.697266 1788.21814 622.147949 1781.673218 624.715942 C 1775.128418 627.284058 1767.914917 628.567993 1760.032471 628.567993 Z M 1551.864014 626 L 1551.864014 466.569946 L 1572.99646 466.569946 L 1572.99646 537.564453 L 1652.711548 537.564453 L 1652.711548 466.569946 L 1673.843994 466.569946 L 1673.843994 626 L 1652.711548 626 L 1652.711548 556.824463 L 1572.99646 556.824463 L 1572.99646 626 Z"/>
    </g>
</svg>
